<svg width="512" height="512" viewBox="0 0 512 512" fill="none" xmlns="http://www.w3.org/2000/svg">
<circle cx="256" cy="269" r="181.5" stroke="black" stroke-width="33"/>
<rect x="235" y="56" width="42" height="23" fill="black"/>
<rect x="220" y="33" width="73" height="23" fill="black"/>
<rect x="88" y="117.261" width="42" height="34" transform="rotate(-46.0952 88 117.261)" fill="black"/>
<rect width="42" height="34" transform="matrix(-0.693462 -0.720494 -0.720494 0.693462 421.622 117.261)" fill="black"/>
<rect width="10.5114" height="124.631" transform="matrix(-0.232018 -0.972712 -0.972712 0.232018 386.954 243.225)" fill="black"/>
<path d="M248 130C248 127.239 250.239 125 253 125H258C260.761 125 263 127.239 263 130V161C263 163.761 260.761 166 258 166H253C250.239 166 248 163.761 248 161V130Z" fill="black"/>
<path d="M248 378C248 375.239 250.239 373 253 373H258C260.761 373 263 375.239 263 378V409C263 411.761 260.761 414 258 414H253C250.239 414 248 411.761 248 409V378Z" fill="black"/>
<path d="M318.755 144.94C320.136 142.548 323.194 141.729 325.585 143.109L329.915 145.609C332.307 146.99 333.126 150.048 331.745 152.44L316.245 179.286C314.865 181.678 311.807 182.497 309.415 181.116L305.085 178.616C302.694 177.236 301.874 174.178 303.255 171.786L318.755 144.94Z" fill="black"/>
<path d="M194.755 359.714C196.136 357.322 199.194 356.503 201.585 357.884L205.915 360.384C208.307 361.764 209.126 364.822 207.745 367.214L192.245 394.06C190.865 396.452 187.807 397.271 185.415 395.891L181.085 393.391C178.694 392.01 177.874 388.952 179.255 386.56L194.755 359.714Z" fill="black"/>
<path d="M248 130C248 127.239 250.239 125 253 125H258C260.761 125 263 127.239 263 130V161C263 163.761 260.761 166 258 166H253C250.239 166 248 163.761 248 161V130Z" fill="black"/>
<path d="M248 378C248 375.239 250.239 373 253 373H258C260.761 373 263 375.239 263 378V409C263 411.761 260.761 414 258 414H253C250.239 414 248 411.761 248 409V378Z" fill="black"/>
<path d="M318.755 144.94C320.136 142.548 323.194 141.729 325.585 143.109L329.915 145.609C332.307 146.99 333.126 150.048 331.745 152.44L316.245 179.286C314.865 181.678 311.807 182.497 309.415 181.116L305.085 178.616C302.694 177.236 301.874 174.178 303.255 171.786L318.755 144.94Z" fill="black"/>
<path d="M194.755 359.714C196.136 357.322 199.194 356.503 201.585 357.884L205.915 360.384C208.307 361.764 209.126 364.822 207.745 367.214L192.245 394.06C190.865 396.452 187.807 397.271 185.415 395.891L181.085 393.391C178.694 392.01 177.874 388.952 179.255 386.56L194.755 359.714Z" fill="black"/>
<path d="M372.56 193.255C374.952 191.874 378.01 192.693 379.391 195.085L381.891 199.415C383.271 201.806 382.452 204.864 380.06 206.245L353.214 221.745C350.822 223.126 347.764 222.306 346.384 219.915L343.884 215.585C342.503 213.193 343.322 210.135 345.714 208.755L372.56 193.255Z" fill="black"/>
<path d="M157.786 317.255C160.178 315.874 163.235 316.693 164.616 319.085L167.116 323.415C168.497 325.806 167.678 328.864 165.286 330.245L138.439 345.745C136.048 347.126 132.99 346.306 131.609 343.915L129.109 339.585C127.728 337.193 128.548 334.135 130.939 332.755L157.786 317.255Z" fill="black"/>
<path d="M395 262C397.761 262 400 264.239 400 267L400 272C400 274.761 397.761 277 395 277L364 277C361.239 277 359 274.761 359 272L359 267C359 264.239 361.239 262 364 262L395 262Z" fill="black"/>
<path d="M147 262C149.761 262 152 264.239 152 267L152 272C152 274.761 149.761 277 147 277L116 277C113.239 277 111 274.761 111 272L111 267C111 264.239 113.239 262 116 262L147 262Z" fill="black"/>
<path d="M380.06 332.755C382.452 334.135 383.271 337.193 381.891 339.585L379.391 343.915C378.01 346.306 374.952 347.126 372.56 345.745L345.714 330.245C343.322 328.864 342.503 325.806 343.884 323.415L346.384 319.085C347.764 316.693 350.822 315.874 353.214 317.255L380.06 332.755Z" fill="black"/>
<path d="M165.286 208.754C167.678 210.135 168.497 213.193 167.116 215.585L164.616 219.915C163.235 222.306 160.178 223.125 157.786 221.745L130.939 206.245C128.548 204.864 127.728 201.806 129.109 199.415L131.609 195.085C132.99 192.693 136.048 191.874 138.439 193.254L165.286 208.754Z" fill="black"/>
<path d="M331.745 386.56C333.126 388.952 332.306 392.01 329.915 393.391L325.585 395.891C323.193 397.271 320.135 396.452 318.755 394.06L303.255 367.214C301.874 364.822 302.693 361.764 305.085 360.384L309.415 357.884C311.806 356.503 314.864 357.322 316.245 359.714L331.745 386.56Z" fill="black"/>
<path d="M207.745 171.786C209.126 174.178 208.306 177.235 205.915 178.616L201.585 181.116C199.193 182.497 196.135 181.678 194.755 179.286L179.255 152.439C177.874 150.048 178.693 146.99 181.085 145.609L185.415 143.109C187.806 141.728 190.864 142.548 192.245 144.939L207.745 171.786Z" fill="black"/>
<circle cx="255.5" cy="269.5" r="14.5" stroke="black" stroke-width="12"/>
</svg>
